<svg xmlns="http://www.w3.org/2000/svg" xmlns:xlink="http://www.w3.org/1999/xlink" width="30" height="23" viewBox="0 0 30 23">
    <defs>
        <path id="a" d="M0 22.628h29.153V0H0z"/>
    </defs>
    <g fill="none" fill-rule="evenodd" transform="translate(.38 .176)">
        <path fill="#221E1F" d="M6.303 21.31a.723.723 0 1 1 .725.764.717.717 0 0 1-.73-.764h.005zm1.937 0v-1.194h-.52v.29a.908.908 0 0 0-.752-.35 1.25 1.25 0 1 0 0 2.498c.293.01.572-.12.751-.35v.29h.52V21.31zm17.575 0a.722.722 0 1 1-.002.056c0-.019 0-.037.002-.056zm2.753 1.014v.06h.055c.009.002.02.002.03 0a.027.027 0 0 0 0-.023.026.026 0 0 0 0-.022.055.055 0 0 0-.03 0l-.055-.015zm.055-.043a.099.099 0 0 1 .065.02.06.06 0 0 1 .022.053.058.058 0 0 1-.017.045.088.088 0 0 1-.053.022l.073.082h-.058l-.067-.082h-.023v.082h-.047v-.22l.105-.002zm-.015.298a.18.18 0 0 0 .13-.056.184.184 0 0 0 0-.25.18.18 0 0 0-.203-.04.19.19 0 0 0-.06.04.184.184 0 0 0 0 .25.19.19 0 0 0 .14.056h-.007zm0-.423a.243.243 0 0 1 .225.143.227.227 0 0 1-.053.26.257.257 0 0 1-.172.07.25.25 0 0 1-.225-.146.232.232 0 0 1 .129-.309.264.264 0 0 1 .103-.018h-.007zm-.869-.846v-2.153h-.5v1.25a.908.908 0 0 0-.751-.35 1.25 1.25 0 1 0 0 2.497c.292.01.571-.12.75-.35v.29h.501V21.31zm-13.04-.79a.593.593 0 0 1 .605.58h-1.251a.615.615 0 0 1 .635-.58h.01zm0-.464a1.25 1.25 0 1 0 .034 2.498c.36.018.715-.098.994-.325l-.25-.385a1.14 1.14 0 0 1-.696.25.663.663 0 0 1-.715-.585h1.776v-.2c0-.748-.465-1.248-1.136-1.248l-.008-.005zm6.28 1.249a.723.723 0 1 1 1.444.087.723.723 0 0 1-1.443-.087zm1.938 0v-1.189h-.52v.29a.907.907 0 0 0-.751-.35 1.25 1.25 0 0 0-1.252 1.249c0 .69.56 1.249 1.252 1.249a.91.91 0 0 0 .75-.35v.29h.52v-1.19zm-4.875 0a1.207 1.207 0 0 0 1.276 1.249c.313.015.62-.086.861-.285l-.25-.42c-.18.137-.4.212-.626.215a.767.767 0 0 1 0-1.528c.227.002.446.077.626.214l.25-.42a1.251 1.251 0 0 0-.86-.284 1.207 1.207 0 0 0-1.277 1.249v.01zm6.707-1.249a.706.706 0 0 0-.631.35v-.29h-.516v2.387h.52v-1.338c0-.395.171-.614.501-.614a.848.848 0 0 1 .326.06l.16-.5a1.108 1.108 0 0 0-.37-.065l.01.01zm-13.942.25a1.793 1.793 0 0 0-.976-.25c-.605 0-1 .29-1 .764 0 .39.29.63.825.705l.25.035c.285.04.421.115.421.25 0 .184-.19.29-.546.29a1.279 1.279 0 0 1-.796-.25l-.25.404c.303.211.667.32 1.036.31.691 0 1.092-.325 1.092-.78 0-.454-.316-.639-.837-.714l-.25-.035c-.225-.03-.405-.074-.405-.235 0-.16.17-.28.455-.28.264.004.523.074.751.205l.23-.42zm6.712-.25a.706.706 0 0 0-.63.35v-.29h-.516v2.387h.52v-1.338c0-.395.17-.614.5-.614a.85.85 0 0 1 .326.06l.16-.5a1.111 1.111 0 0 0-.37-.065l.01.01zm-4.44.06h-.855v-.724h-.526v.724h-.475v.475h.485v1.099c0 .554.216.884.831.884.23 0 .456-.063.65-.185l-.15-.444a.972.972 0 0 1-.46.134c-.25 0-.345-.16-.345-.4v-1.088h.85l-.004-.475zm-7.774 2.387v-1.498a.89.89 0 0 0-.941-.949.927.927 0 0 0-.842.424.879.879 0 0 0-.79-.424.79.79 0 0 0-.7.355v-.295H1.51v2.387h.525V21.19a.56.56 0 0 1 .586-.634c.345 0 .52.224.52.629v1.328h.525V21.19a.563.563 0 0 1 .587-.634c.354 0 .525.224.525.629v1.328l.526-.01z"/>
        <mask id="b" fill="#fff">
            <use xlink:href="#a"/>
        </mask>
        <path fill="#F06022" d="M10.635 16.06h7.883V1.923h-7.883z" mask="url(#b)"/>
        <path fill="#E91D25" d="M11.135 8.993a8.97 8.97 0 0 1 3.441-7.07c-3.912-3.068-9.575-2.39-12.65 1.514A8.978 8.978 0 0 0 3.443 16.06a9.025 9.025 0 0 0 11.133 0 8.97 8.97 0 0 1-3.44-7.068" mask="url(#b)"/>
        <path fill="#F59E1E" d="M29.153 8.993c0 4.966-4.034 8.99-9.009 8.99-2.02 0-3.98-.677-5.568-1.922a8.979 8.979 0 0 0 0-14.138c3.912-3.069 9.575-2.392 12.65 1.511a8.98 8.98 0 0 1 1.927 5.557v.002zM29.667 15.187v-.974h-.184l-.217.696-.215-.696h-.164v.974h.133v-.731l.2.633h.138l.201-.633v.739l.108-.008zm-1.186 0v-.807h.242v-.167h-.611v.167h.262v.807h.107z" mask="url(#b)"/>
    </g>
</svg>
