<svg xmlns="http://www.w3.org/2000/svg" xmlns:xlink="http://www.w3.org/1999/xlink" width="31" height="11" viewBox="0 0 31 11">
    <defs>
        <path id="a" d="M.195.165h7.47V10.32H.195z"/>
        <path id="c" d="M.19.345h8.939v9.831H.19z"/>
    </defs>
    <g fill="none" fill-rule="evenodd">
        <g transform="translate(14.684 .265)">
            <mask id="b" fill="#fff">
                <use xlink:href="#a"/>
            </mask>
            <path fill="#265797" d="M7.665.578A6.026 6.026 0 0 0 5.433.165c-2.46 0-4.192 1.334-4.207 3.246-.013 1.414 1.237 2.202 2.181 2.673.97.482 1.295.79 1.291 1.22-.007.66-.774.96-1.49.96-.996 0-1.525-.148-2.343-.515l-.32-.157-.35 2.202c.582.275 1.657.512 2.773.525 2.616 0 4.315-1.319 4.335-3.36.01-1.12-.654-1.972-2.09-2.673-.87-.456-1.403-.76-1.398-1.22 0-.409.451-.846 1.426-.846a4.31 4.31 0 0 1 1.863.377l.223.113.338-2.132" mask="url(#b)"/>
        </g>
        <g transform="translate(21.618 .265)">
            <mask id="d" fill="#fff">
                <use xlink:href="#c"/>
            </mask>
            <path fill="#265797" d="M4.044 6.686c.206-.567.992-2.75.992-2.75-.015.026.205-.57.33-.939l.168.848.577 2.84H4.044zm3.07-6.34H5.191c-.596 0-1.042.175-1.304.815L.19 10.176h2.614s.427-1.212.524-1.478l3.188.004c.074.345.303 1.474.303 1.474h2.31L7.114.346z" mask="url(#d)"/>
        </g>
        <path fill="#265797" d="M10.832 10.438L12.388.6h2.49l-1.558 9.837zM8.744.608L6.307 7.316l-.26-1.363C5.594 4.38 4.18 2.679 2.6 1.826l2.228 8.603 2.634-.003L11.38.608H8.744"/>
        <path fill="#D77B27" d="M4.046.602H.032L0 .807c3.123.814 5.19 2.782 6.047 5.146l-.873-4.52c-.15-.624-.588-.81-1.128-.83"/>
    </g>
</svg>
